<?xml version="1.0" encoding="utf-8"?>
<!-- Generator: Adobe Illustrator 24.1.3, SVG Export Plug-In . SVG Version: 6.00 Build 0)  -->
<svg version="1.1" id="レイヤー_1" xmlns="http://www.w3.org/2000/svg" xmlns:xlink="http://www.w3.org/1999/xlink" x="0px"
	 y="0px" viewBox="0 0 340 70" style="enable-background:new 0 0 340 70;" xml:space="preserve">
<style type="text/css">
	.st0{fill:#404040;}
	.st1{fill:#E85F9D;}
</style>
<g>
	<g>
		<g>
			<path class="st0" d="M101.7,25.5c-0.8-1-2.1-1.7-3.9-1.9c-0.8-0.1-1.5-0.2-2-0.3c-0.9-0.2-1.5-0.5-1.9-0.9
				c-0.4-0.4-0.6-0.9-0.6-1.3c0-0.8,0.3-1.5,0.9-1.9c0.5-0.4,1.2-0.6,2-0.6c1.6,0,3.1,0.5,4.4,1.4l0.1,0.1l1.7-2.5l-0.1-0.1
				c-1.7-1.2-3.7-1.9-6-1.9c-1.9,0-3.4,0.5-4.4,1.5c-1.1,1-1.6,2.3-1.6,4c0,1.4,0.4,2.5,1.3,3.5c0.8,0.9,2.1,1.5,3.6,1.8
				c0.9,0.1,1.7,0.2,2.4,0.3c1.5,0.3,2.3,1,2.3,2.3c0,1.6-1.2,2.4-3.5,2.4c-2,0-3.7-0.6-5.1-1.8l-0.1-0.1l-2,2.3l0.1,0.1
				c1.9,1.7,4.3,2.5,7,2.5h0c4.2-0.1,6.4-1.9,6.5-5.5C102.9,27.7,102.5,26.5,101.7,25.5z"/>
			<polygon class="st0" points="137.4,15.9 133.9,23.5 130.4,15.9 130.4,15.9 127.1,15.9 132.5,26.7 132.5,34.3 135.3,34.3 
				135.3,26.7 140.7,15.9 			"/>
			<polygon class="st0" points="238.3,34.3 241.2,34.3 241.2,15.9 238.4,15.9 238.4,28.7 238.4,28.7 230.3,15.9 227.7,15.9 
				227.7,34.3 230.5,34.3 230.5,21.5 230.6,21.5 			"/>
			<polygon class="st0" points="300.7,34.3 303.6,34.3 303.6,15.9 300.8,15.9 300.8,28.7 300.8,28.7 292.7,15.9 290.1,15.9 
				290.1,34.3 292.9,34.3 292.9,21.5 292.9,21.5 			"/>
			<polygon class="st0" points="197.1,15.9 192.2,23.5 187.3,15.9 184.5,15.9 184.5,34.3 187.3,34.3 187.3,20.6 187.4,20.6 
				191.1,26.8 193.2,26.8 197,20.6 197.1,20.6 197.1,34.3 199.8,34.3 199.8,15.9 			"/>
			<path class="st0" d="M320.1,29L320.1,29c-0.8,1.7-1.8,2.5-3.3,2.5c-0.6,0-1.1-0.1-1.6-0.4c-0.4-0.2-0.8-0.5-1.1-0.9
				c-0.3-0.4-0.6-0.9-0.7-1.5c-0.1-0.6-0.2-1.9-0.2-3.6c0-1.8,0.1-3,0.2-3.6c0.1-0.6,0.3-1.1,0.7-1.5c0.3-0.4,0.6-0.7,1.1-0.9
				c0.4-0.2,1-0.4,1.6-0.4c0.8,0,1.5,0.3,2.1,0.7c0.6,0.5,0.9,1.1,1.2,1.8l0,0.1h3.1l0-0.2c-0.3-1.5-1-2.8-2.1-3.9
				c-1.1-1-2.5-1.6-4.2-1.6c-1.4,0-2.6,0.4-3.5,1c-1,0.7-1.7,1.4-2.1,2.3c-0.3,0.5-0.5,1-0.6,1.8c-0.1,0.7-0.2,2.2-0.2,4.3
				c0,2.1,0.1,3.5,0.2,4.2c0.1,0.4,0.2,0.7,0.3,1c0.1,0.3,0.2,0.5,0.4,0.8c0.4,0.9,1.1,1.6,2.1,2.3c0.9,0.7,2.1,1,3.5,1.1h0
				c1.5,0,2.9-0.5,4.1-1.4c1.1-0.9,1.9-2.2,2.3-4l0-0.2H320.1z"/>
			<rect x="328.4" y="31.4" class="st0" width="2.8" height="2.8"/>
			<polygon class="st0" points="261.9,15.9 261.9,15.9 248.2,15.9 248.2,18.7 253,18.7 253,34.3 256,34.3 256,18.7 259.2,18.7 			
				"/>
			<polygon class="st0" points="122.2,15.9 122.2,15.9 108.5,15.9 108.5,18.7 113.2,18.7 113.2,34.3 116.3,34.3 116.3,18.7 
				119.4,18.7 			"/>
			<polygon class="st0" points="168.6,26.3 176.1,26.3 176.1,23.6 168.6,23.6 168.6,18.7 174.2,18.7 177,15.9 177,15.9 165.7,15.9 
				165.7,34.3 176.1,34.3 176.1,31.4 168.6,31.4 			"/>
			<polygon class="st0" points="212.1,26.4 219.6,26.4 219.6,23.7 212.1,23.7 212.1,18.8 217.7,18.8 220.5,16 220.5,15.9 
				209.2,15.9 209.2,34.4 219.6,34.4 219.6,31.5 212.1,31.5 			"/>
			<polygon class="st0" points="159.5,31.5 159.5,31.4 151,31.4 151,15.9 148.1,15.9 148.1,34.3 156.6,34.3 			"/>
			<polygon class="st0" points="278.4,17.9 278.4,34.3 281.3,34.3 281.3,15 281.3,15 			"/>
		</g>
		<g>
			<path class="st0" d="M186.5,52.2c0.2-0.2,0.4-0.5,0.6-0.8c0.2-0.3,0.3-0.7,0.5-1l0.1-0.1l-1.4-0.6l-0.1,0.2
				c-0.1,0.4-0.3,0.9-0.6,1.2l-1.5-1.9c0.9-0.5,1.3-1.2,1.3-2c0-0.6-0.2-1.1-0.6-1.5c-0.4-0.4-0.9-0.6-1.5-0.6
				c-0.6,0-1.1,0.2-1.5,0.6c-0.4,0.4-0.6,0.9-0.6,1.5c0,0.3,0.1,0.6,0.2,0.9c0.1,0.2,0.2,0.5,0.4,0.7c-1,0.6-1.6,1.5-1.6,2.6
				c0,0.8,0.3,1.4,0.8,2c0.5,0.5,1.2,0.8,2,0.9h0c0.5,0,0.9-0.1,1.3-0.3c0.4-0.2,0.7-0.4,1-0.6l0.7,0.8h1.8L186.5,52.2z M182.8,46.6
				c0.1-0.1,0.3-0.2,0.5-0.2c0.2,0,0.4,0.1,0.5,0.2c0.1,0.1,0.2,0.3,0.2,0.5c0,0.2-0.1,0.3-0.2,0.5c-0.1,0.1-0.4,0.3-0.7,0.4
				c-0.1-0.1-0.2-0.3-0.3-0.5c-0.1-0.2-0.2-0.3-0.2-0.5C182.6,46.9,182.7,46.7,182.8,46.6z M183.1,52.7c-0.4,0-0.7-0.1-1-0.4
				c-0.3-0.3-0.4-0.6-0.4-1c0-0.5,0.3-1,1-1.5l1.9,2.3C184.1,52.5,183.6,52.7,183.1,52.7z"/>
			<path class="st0" d="M130.3,48.8c-0.4-0.1-0.7-0.1-0.9-0.1c-0.4-0.1-0.7-0.2-0.8-0.4c-0.2-0.2-0.2-0.4-0.2-0.6
				c0-0.4,0.1-0.6,0.4-0.8c0.2-0.2,0.5-0.3,0.9-0.3c0.7,0,1.4,0.2,2,0.6l0.1,0.1l0.9-1.3l-0.1-0.1c-0.8-0.6-1.7-0.9-2.8-0.9
				c-0.9,0-1.6,0.3-2.1,0.7c-0.5,0.5-0.8,1.1-0.8,1.9c0,0.7,0.2,1.2,0.6,1.7c0.4,0.5,1,0.7,1.7,0.9c0.4,0.1,0.8,0.1,1.1,0.2
				c0.7,0.1,1,0.4,1,1c0,0.7-0.5,1-1.5,1.1c-0.9,0-1.6-0.3-2.3-0.8l-0.1-0.1l-1,1.2l0.1,0.1c0.9,0.8,2,1.2,3.3,1.2h0
				c2,0,3-0.9,3.1-2.7c0-0.6-0.2-1.2-0.6-1.7C131.8,49.2,131.1,48.9,130.3,48.8z"/>
			<polygon class="st0" points="148,48.7 146.3,45.1 144.6,45.1 147.3,50.4 147.3,54 148.8,54 148.8,50.4 151.4,45.1 149.7,45.1 			
				"/>
			<polygon class="st0" points="281.3,50.9 277.7,45.1 276.3,45.1 276.3,54 277.8,54 277.8,48.2 281.4,54 282.9,54 282.9,45.1 
				281.3,45.1 			"/>
			<polygon class="st0" points="214.3,50.9 210.7,45.1 209.3,45.1 209.3,54 210.9,54 210.9,48.2 214.4,54 215.9,54 215.9,45.1 
				214.3,45.1 			"/>
			<polygon class="st0" points="315.6,50.9 312.1,45.2 312.1,45.1 310.6,45.1 310.6,54 312.2,54 312.2,48.2 315.7,54 315.8,54 
				317.2,54 317.2,45.1 315.6,45.1 			"/>
			<path class="st0" d="M262.6,45.2l0-0.1h-1.3l-3.2,9h1.7l0.6-1.9h3L264,54h1.7L262.6,45.2z M260.9,50.6l1-3.2l1,3.2H260.9z"/>
			<path class="st0" d="M244.5,50.1c1-0.5,1.5-1.3,1.6-2.5c0-0.8-0.3-1.5-0.9-2c-0.5-0.4-1.1-0.6-1.8-0.6h-3.4v9h1.6v-3.7h1.4
				l1.7,3.7h1.9L244.5,50.1z M243.3,48.9h-1.8v-2.3h1.8c0.4,0,0.6,0.1,0.8,0.2c0.2,0.2,0.4,0.5,0.4,0.9c0,0.3-0.1,0.6-0.3,0.9
				C244,48.7,243.7,48.9,243.3,48.9z"/>
			<polygon class="st0" points="294,45.1 291.7,48.4 289.5,45.1 288,45.1 288,54 289.6,54 289.6,48 291.2,50.5 292.3,50.5 293.9,48 
				293.9,54 295.5,54 295.5,45.1 			"/>
			<polygon class="st0" points="327.8,45.1 327.8,45.1 321,45.1 321,46.6 323.3,46.6 323.3,54 324.9,54 324.9,46.6 326.3,46.6 			
				"/>
			<polygon class="st0" points="256.3,45.1 256.3,45.1 249.5,45.1 249.5,46.6 251.8,46.6 251.8,54 253.4,54 253.4,46.6 254.8,46.6 
							"/>
			<polygon class="st0" points="226.5,45.1 226.5,45.1 219.7,45.1 219.7,46.6 222,46.6 222,54 223.6,54 223.6,46.6 225,46.6 			"/>
			<polygon class="st0" points="142.4,45.1 142.4,45.1 135.7,45.1 135.7,46.6 138,46.6 138,54 139.6,54 139.6,46.6 141,46.6 			"/>
			<polygon class="st0" points="109.1,46.6 112.2,46.6 113.7,45.1 107.5,45.1 107.5,54 109.1,54 109.1,50.4 112.8,50.4 112.8,48.9 
				109.1,48.9 			"/>
			<polygon class="st0" points="160.9,52.5 160.9,52.5 156.5,52.5 156.5,45.1 155,45.1 155,54 159.3,54 			"/>
			<polygon class="st0" points="97.2,52.5 97.2,52.5 92.9,52.5 92.9,45.1 91.3,45.1 91.3,54 95.7,54 			"/>
			<polygon class="st0" points="118.7,50.3 122.4,50.3 122.4,48.8 118.7,48.8 118.7,46.6 121.5,46.6 123,45.1 117.1,45.1 117.1,54 
				122.4,54 122.4,52.5 118.7,52.5 			"/>
			<polygon class="st0" points="165.4,50.3 169.2,50.3 169.2,48.8 165.4,48.8 165.4,46.6 168.2,46.6 169.8,45.1 163.9,45.1 
				163.9,54 169.2,54 169.2,52.5 165.4,52.5 			"/>
			<polygon class="st0" points="200.7,50.3 204.5,50.3 204.5,48.8 200.7,48.8 200.7,46.6 203.5,46.6 205.1,45.1 199.2,45.1 
				199.2,54 204.5,54 204.5,52.5 200.7,52.5 			"/>
			<polygon class="st0" points="231.4,50.3 235.1,50.3 235.1,48.8 231.4,48.8 231.4,46.6 234.2,46.6 235.7,45.1 229.8,45.1 
				229.8,54 235.1,54 235.1,52.5 231.4,52.5 			"/>
			<polygon class="st0" points="302.1,50.3 305.9,50.3 305.9,48.8 302.1,48.8 302.1,46.6 304.9,46.6 306.4,45.1 300.5,45.1 
				300.5,54 305.9,54 305.9,52.5 302.1,52.5 			"/>
			<polygon class="st0" points="269.7,46.2 269.7,54 271.2,54 271.2,44.6 			"/>
			<polygon class="st0" points="100.7,46.2 100.7,54 102.2,54 102.2,44.6 			"/>
		</g>
	</g>
	<polygon class="st1" points="8.8,5.3 8.8,21 31.1,21 8.8,43.2 8.8,64.7 68.2,5.3 	"/>
</g>
</svg>
